<svg xmlns="http://www.w3.org/2000/svg" viewBox="0 0 150 150"><g transform="matrix(2.8574 0 0 3.0387 -.00067167 -4.7586)"><path fill="#81c784" d="m31.113 16.038v-12.048l19.971 20.08-19.971 20.08v-12.048s-17.735-4.292-29.849 16.064c0 0-3.02-15.536 10.51-26.794 0-0.001 6.129-5.732 19.339-5.334z"/><path fill="#66bb6a" d="m0.783 50.929-0.5-2.573c-0.031-0.161-2.974-16.25 10.852-27.753 0.202-0.191 6.116-5.585 18.674-5.585 0.102 0 0.203 0 0.305 0.001v-13.453l22.381 22.504-22.382 22.504v-13.637c-0.662-0.098-1.725-0.213-3.071-0.213-5.761 0-16.657 2.073-24.918 15.953l-1.341 2.252zm29.025-33.911c-11.776 0-17.297 5.033-17.352 5.084-9.545 7.944-10.578 18.172-10.452 23.047 12.361-18.058 29.123-14.072 29.344-14.019l0.765 0.185v10.411l17.561-17.656-17.561-17.657v10.654l-1.03-0.03c-0.433-0.013-0.857-0.019-1.275-0.019z"/></g></svg>