<svg xmlns="http://www.w3.org/2000/svg" viewBox="0 0 140 140"><g transform="matrix(.28107 0 0 .28116 -2.2221 2.3581)"><path fill="#90a4ae" d="m52.332 39.027 41.946 41.946c-17.296 17.296-17.296 45.326 0 62.621 17.289 17.289 45.326 17.296 62.621 0l345.78 345.78-154.51 0.177 0.007-55.727h-55.706v-55.706h-55.706v-67.416l-22.429-22.429c-17.338 6.647-35.949 10.112-54.582 10.119-40.59 0-78.743-15.79-107.43-44.49-59.23-59.24-59.237-155.62 0.004-214.86z"/><path fill="#b0bec5" d="m160.14 78.057c-17.296-17.296-45.333-17.289-62.621 0l-41.946-41.946c28.694-28.694 66.85-44.491 107.43-44.498 40.588 0 78.736 15.804 107.44 44.505 42.865 42.865 55.869 106.37 34.387 162.02l200.98 200.98 0.184 87.342h-0.071l-345.78-345.78c17.289-17.29 17.289-45.333 0-62.622z"/></g></svg>