<svg xmlns="http://www.w3.org/2000/svg" viewBox="0 0 180 180"><g transform="matrix(.34783 0 0 .37584 .0024348 -9.967)"><path fill="#95d6a6" d="m426.05 200.9c-7.331-3.4926-14.969-6.438-22.857-8.7938-7.4084-2.2139-15.043-3.9029-22.857-5.0241-7.4701-1.0712-15.097-1.6411-22.857-1.6411-8.2299 0-16.317 0.6247-24.215 1.83-3.1588 0.48174-6.2892 1.0575-9.3853 1.7223-1.5481 0.33193-3.0873 0.68736-4.6187 1.0634-6.1237 1.5089-12.111 3.3703-17.938 5.5636-2.913 1.0957-5.7859 2.2746-8.6157 3.5348-5.6596 2.5174-11.148 5.355-16.44 8.4893-3.9696 2.35-7.8294 4.8674-11.569 7.5415-2.493 1.783-4.934 3.6346-7.3193 5.5538-1.1917 0.95958-2.3716 1.9348-3.5338 2.9287-3.4927 2.9776-6.8542 6.1031-10.079 9.3657-5.3727 5.4373-10.362 11.256-14.92 17.412-3.6435 4.9203-7.0157 10.049-10.087 15.375-1.0242 1.7752-2.0142 3.572-2.9698 5.3893-0.98407 1.8682-1.9397 3.7512-2.8494 5.6625-2.4842 5.214-4.6755 10.589-6.5908 16.092-0.77844 2.2354-1.5226 4.4865-2.2031 6.764-0.55323 1.8526-1.0742 3.7179-1.5608 5.5988-1.4609 5.64-2.6212 11.399-3.4653 17.259-1.0693 7.468-1.6382 15.1-1.6382 22.857 0 9.347 0.80879 18.508 2.3569 27.417 1.5481 8.9094 3.8354 17.571 6.7944 25.915 1.4032 3.9607 2.9581 7.8509 4.655 11.663 1.6979 3.8128 3.5416 7.5454 5.5235 11.194 2.1924 4.0302 4.5551 7.9576 7.0755 11.77 2.5204 3.8128 5.1994 7.5111 8.0262 11.087 29.327 37.101 74.712 60.952 125.57 60.952 88.224 0 160-71.775 160-160-0.003-63.702-37.425-118.82-91.432-144.54z"/><path fill="#009688" d="m23.345 447.03h197.01c-5.774-7.305-10.942-15.111-15.421-23.343-4.049-7.45-7.529-15.254-10.397-23.343-6.044-17.045-9.347-35.376-9.347-54.468 0-7.923 0.58-15.716 1.673-23.343 1.148-7.977 2.873-15.777 5.132-23.343 0.696-2.328 1.457-4.627 2.25-6.908 1.956-5.621 4.194-11.11 6.731-16.435 0.929-1.95 1.906-3.875 2.91-5.783 3.906-7.425 8.376-14.507 13.335-21.205-12.517-2.728-25.321-4.136-38.258-4.136-98.686-0.01-178.97 80.27-178.97 178.95 0.002 12.892 10.453 23.344 23.345 23.344z"/><path fill="#fff" d="m406.03 322.53h-23.343v-23.343c0-12.892-10.453-23.343-23.343-23.343-12.892 0-23.343 10.452-23.343 23.343v23.343h-23.345c-12.892 0-23.343 10.452-23.343 23.343 0 12.893 10.452 23.343 23.343 23.343h23.343v23.343c0 12.893 10.452 23.343 23.343 23.343 12.89 0 23.343-10.45 23.343-23.343v-23.343h23.343c12.89 0 23.343-10.45 23.343-23.343 0.003-12.891-10.451-23.343-23.341-23.343z"/><path fill="#fea" d="m185.49 26.519c-58.291 0-105.72 47.079-105.72 104.95 0 57.867 47.424 104.94 105.72 104.94 58.291 0 105.71-47.077 105.71-104.94 0-57.868-47.423-104.95-105.71-104.95z"/></g></svg>